<?xml version="1.0" encoding="UTF-8" standalone="no"?>
<!-- Generator: Adobe Illustrator 17.0.1, SVG Export Plug-In . SVG Version: 6.00 Build 0)  -->

<svg
   xmlns:osb="http://www.openswatchbook.org/uri/2009/osb"
   xmlns:dc="http://purl.org/dc/elements/1.1/"
   xmlns:cc="http://creativecommons.org/ns#"
   xmlns:rdf="http://www.w3.org/1999/02/22-rdf-syntax-ns#"
   xmlns:svg="http://www.w3.org/2000/svg"
   xmlns="http://www.w3.org/2000/svg"
   xmlns:xlink="http://www.w3.org/1999/xlink"
   xmlns:sodipodi="http://sodipodi.sourceforge.net/DTD/sodipodi-0.dtd"
   xmlns:inkscape="http://www.inkscape.org/namespaces/inkscape"
   version="1.1"
   x="0px"
   y="0px"
   width="292"
   height="292"
   viewBox="0 0 292 292"
   enable-background="new 0 0 86 86"
   xml:space="preserve"
   id="svg2"
   inkscape:version="0.48.5 r10040"
   sodipodi:docname="jollausers-overlay.svg"
   inkscape:export-filename="/Users/mtw/dev/sailfishos/jollausers/jollausers/qml/images/jollausers-overlay.png"
   inkscape:export-xdpi="90"
   inkscape:export-ydpi="90"><metadata
     id="metadata27"><rdf:RDF><cc:Work
         rdf:about=""><dc:format>image/svg+xml</dc:format><dc:type
           rdf:resource="http://purl.org/dc/dcmitype/StillImage" /><dc:title /></cc:Work></rdf:RDF></metadata><defs
     id="defs25"><linearGradient
       id="linearGradient5614"><stop
         style="stop-color:#bcbca0;stop-opacity:1;"
         offset="0"
         id="stop5616" /><stop
         style="stop-color:#bcbca0;stop-opacity:1;"
         offset="1"
         id="stop5618" /></linearGradient><linearGradient
       id="linearGradient5389"><stop
         style="stop-color:#1b91ff;stop-opacity:0.45299146;"
         offset="0"
         id="stop5391" /><stop
         style="stop-color:#1b91ff;stop-opacity:1;"
         offset="1"
         id="stop5393" /></linearGradient><linearGradient
       id="linearGradient5375"
       osb:paint="solid"><stop
         style="stop-color:#ab9145;stop-opacity:1;"
         offset="0"
         id="stop5377" /></linearGradient><linearGradient
       id="linearGradient5614-9"><stop
         style="stop-color:#bcbca0;stop-opacity:1;"
         offset="0"
         id="stop5616-7" /><stop
         style="stop-color:#bcbca0;stop-opacity:1;"
         offset="1"
         id="stop5618-5" /></linearGradient><linearGradient
       id="linearGradient5389-7"><stop
         style="stop-color:#8ddbd6;stop-opacity:0.96610171;"
         offset="0"
         id="stop5391-0" /><stop
         style="stop-color:#000000;stop-opacity:0.66101694;"
         offset="1"
         id="stop5393-0" /></linearGradient><linearGradient
       inkscape:collect="always"
       xlink:href="#linearGradient5614-9-1"
       id="linearGradient5620-6-0"
       x1="15.898305"
       y1="42.08408"
       x2="75.740959"
       y2="42.08408"
       gradientUnits="userSpaceOnUse"
       gradientTransform="matrix(3.9505119,0,0,3.9505119,-29.028371,-225.52539)" /><linearGradient
       id="linearGradient5614-9-1"><stop
         style="stop-color:#bcbca0;stop-opacity:1;"
         offset="0"
         id="stop5616-7-3" /><stop
         style="stop-color:#bcbca0;stop-opacity:1;"
         offset="1"
         id="stop5618-5-1" /></linearGradient><linearGradient
       y2="42.08408"
       x2="75.740959"
       y1="42.08408"
       x1="15.898305"
       gradientTransform="matrix(4.4667051,0,0,4.3787162,-45.44912,-243.3527)"
       gradientUnits="userSpaceOnUse"
       id="linearGradient3052"
       xlink:href="#linearGradient5614-9-1"
       inkscape:collect="always" /></defs><sodipodi:namedview
     pagecolor="#ffffff"
     bordercolor="#666666"
     borderopacity="1"
     objecttolerance="10"
     gridtolerance="10"
     guidetolerance="10"
     inkscape:pageopacity="0"
     inkscape:pageshadow="2"
     inkscape:window-width="1249"
     inkscape:window-height="717"
     id="namedview23"
     showgrid="false"
     inkscape:zoom="0.68604651"
     inkscape:cx="69.776783"
     inkscape:cy="190.57195"
     inkscape:window-x="32"
     inkscape:window-y="0"
     inkscape:window-maximized="0"
     inkscape:current-layer="layer2" /><g
     id="Layer_2"
     display="none"
     style="display:none"
     transform="translate(0,206)" /><g
     inkscape:groupmode="layer"
     id="layer1"
     inkscape:label="1"
     transform="translate(0,206)"
     style="display:inline" /><g
     inkscape:groupmode="layer"
     id="layer4"
     inkscape:label="Layer"><path
       style="fill:#ffffff;fill-opacity:1;stroke:none;stroke-opacity:1;display:inline"
       d="m 170.26659,28.358848 0.20442,33.875518 46.05795,0.728813 -0.009,-34.604331 z"
       id="path4158"
       inkscape:connector-curvature="0"
       sodipodi:nodetypes="ccccc" /></g><g
     inkscape:groupmode="layer"
     id="layer5"
     inkscape:label="L"><path
       style="fill:#8ddbd6;fill-opacity:1;stroke:none;display:inline"
       d="m 35.874958,26.778084 1.333125,159.581976 c 0.06391,42.58922 41.600201,81.4839 82.883067,80.61723 l 0.31092,-45.02785 C 89.373037,217.05724 85.143749,194.09734 85.132003,183.41671 L 85.540904,26.778084 z"
       id="path4043"
       inkscape:connector-curvature="0"
       sodipodi:nodetypes="ccccccc" /></g><g
     inkscape:groupmode="layer"
     id="layer3"
     inkscape:label="fish"
     style="display:inline"
     transform="translate(0,206)"><path
       style="fill:url(#linearGradient3052);fill-opacity:1;fill-rule:nonzero;stroke:#000000;stroke-width:2.21124601;stroke-linecap:butt;stroke-linejoin:round;stroke-miterlimit:4;stroke-opacity:1;stroke-dasharray:none;display:inline"
       d="m 27.797284,-199.47272 76.501806,63.02756 22.78774,14.3607 34.18164,0 40.69244,-53.45377 0.81389,13.56291 4.88309,0.79779 0,4.78691 4.06922,3.98909 0,2.39345 7.32463,4.7869 -0.81382,3.19127 4.88307,0 0,7.18037 0,0 8.13852,0 0,4.78687 9.76619,0 -4.06926,3.98911 10.58001,1.59564 2.44156,3.98907 17.90469,3.98908 -8.95235,7.97816 4.88309,3.1913 -7.32463,3.98905 3.25537,3.989104 -1.62767,5.584745 6.51077,2.39345 -5.64851,4.832169 6.90574,0 -2.8774,3.949001 5.17933,2.256564 -3.45291,2.820725 5.17933,2.820681 0,1.692459 3.45286,0.564116 -0.57549,2.820725 5.17932,2.256564 -6.33026,3.94899 12.6605,4.51314 0,2.820681 6.33027,5.641449 -11.50957,0 2.30191,7.333831 -9.78311,-4.51315 -4.02835,2.820724 0.5755,3.384841 -4.60383,0 0,3.384875 -4.60384,1.128265 -2.87741,6.769715 0.57549,7.33382 -9.20766,-5.077244 -15.53787,4.513095 0.57549,15.795995 -1.72647,20.30911 -9.20764,11.846961 -13.23599,10.718706 -21.86816,3.94899 -18.99076,5.641405 -28.77395,16.92426 -40.858911,17.488377 38.557001,-21.437367 23.01911,-14.667685 2.30191,-9.590395 -14.96241,-14.10358 -21.29266,-10.154557 17.2643,5.0773 15.53793,10.154546 10.93409,6.205566 13.23596,-7.897981 6.33027,-12.411132 0,-11.8469587 -13.23596,-15.2318453 -31.6513,-30.463646 -4.60384,-2.256575 -15.53791,13.539386 -6.90573,12.975269 1.72645,-11.84696 14.96243,-23.129825 -25.32106,-29.899486 -11.509564,-14.667683 -13.811467,-8.46215 -17.839791,-4.51314 16.113356,-1.69242 24.745566,3.949 1.72642,-5.07726 -6.90573,-17.48841 -18.990759,-18.05256 z"
       id="path5484-2"
       inkscape:connector-curvature="0" /><path
       style="fill:none;stroke:#000000;stroke-width:2.21124601;stroke-linecap:butt;stroke-linejoin:round;stroke-miterlimit:4;stroke-opacity:1;stroke-dasharray:none;display:inline"
       d="m 163.44943,-121.211 29.34939,23.693982 18.99072,21.437356 16.11342,34.412636 4.60385,22.565676 0,0 0,0 0,0"
       id="path5518-7"
       inkscape:connector-curvature="0" /><path
       style="fill:none;stroke:#000000;stroke-width:2.21124601;stroke-linecap:butt;stroke-linejoin:round;stroke-miterlimit:4;stroke-opacity:1;stroke-dasharray:none;display:inline"
       d="m 130.07166,-120.64684 13.81151,9.02624 18.99077,2.82072 20.7172,18.052544 17.26435,16.924249 13.81146,25.950506 12.08503,20.873251 4.60384,9.026279"
       id="path5520-8"
       inkscape:connector-curvature="0" /><path
       style="fill:none;stroke:#000000;stroke-width:2.21124601;stroke-linecap:butt;stroke-linejoin:round;stroke-miterlimit:4;stroke-opacity:1;stroke-dasharray:none;display:inline"
       d="m 178.41183,-109.36403 0,14.103554 1.72646,1.128288"
       id="path5522-1"
       inkscape:connector-curvature="0" /><path
       style="fill:none;stroke:#000000;stroke-width:2.21124601;stroke-linecap:butt;stroke-linejoin:round;stroke-miterlimit:4;stroke-opacity:1;stroke-dasharray:none;display:inline"
       d="m 190.49691,-98.081167 -1.15099,13.539375"
       id="path5526-9"
       inkscape:connector-curvature="0" /><path
       style="fill:none;stroke:#000000;stroke-width:2.21124601;stroke-linecap:butt;stroke-linejoin:round;stroke-miterlimit:4;stroke-opacity:1;stroke-dasharray:none;display:inline"
       d="m 203.15744,-84.541792 -2.87744,9.02629"
       id="path5528-3"
       inkscape:connector-curvature="0" /><path
       style="fill:none;stroke:#000000;stroke-width:2.21124601;stroke-linecap:butt;stroke-linejoin:round;stroke-miterlimit:4;stroke-opacity:1;stroke-dasharray:none;display:inline"
       d="m 210.63862,-74.951352 -2.30191,13.539385"
       id="path5530-8"
       inkscape:connector-curvature="0" /><path
       style="fill:none;stroke:#000000;stroke-width:2.21124601;stroke-linecap:butt;stroke-linejoin:round;stroke-miterlimit:4;stroke-opacity:1;stroke-dasharray:none;display:inline"
       d="m 219.27079,-58.027137 -3.45286,9.026291"
       id="path5532-4"
       inkscape:connector-curvature="0" /><path
       style="fill:none;stroke:#000000;stroke-width:2.21124601;stroke-linecap:butt;stroke-linejoin:round;stroke-miterlimit:4;stroke-opacity:1;stroke-dasharray:none;display:inline"
       d="m 226.75198,-42.231175 -2.30191,9.590439"
       id="path5534-2"
       inkscape:connector-curvature="0" /><path
       style="fill:none;stroke:#000000;stroke-width:2.21124601;stroke-linecap:butt;stroke-linejoin:round;stroke-miterlimit:4;stroke-opacity:1;stroke-dasharray:none;display:inline"
       d="m 160.57203,-68.181682 38.55698,58.6707727 0,0 0,0 0,0 0,0 0,0"
       id="path5536-7"
       inkscape:connector-curvature="0" /><path
       style="fill:none;stroke:#000000;stroke-width:2.21124601;stroke-linecap:butt;stroke-linejoin:round;stroke-miterlimit:4;stroke-opacity:1;stroke-dasharray:none;display:inline"
       d="m 167.47779,-101.46604 -2.87742,16.924248 -9.78311,8.46213 -10.93409,1.692426 -6.33027,-4.51314 -6.90574,-9.590396 -5.17928,-6.205565"
       id="path5538-2"
       inkscape:connector-curvature="0" /><path
       style="fill:none;stroke:#000000;stroke-width:2.21124601;stroke-linecap:butt;stroke-linejoin:round;stroke-miterlimit:4;stroke-opacity:1;stroke-dasharray:none;display:inline"
       d="m 139.85482,-75.515502 -3.45289,8.46213 -9.78311,4.513096"
       id="path5540-4"
       inkscape:connector-curvature="0" /><path
       style="fill:none;stroke:#000000;stroke-width:2.21124601;stroke-linecap:butt;stroke-linejoin:round;stroke-miterlimit:4;stroke-opacity:1;stroke-dasharray:none;display:inline"
       d="M 124.89239,-95.260476 100.7223,-99.773582"
       id="path5542-0"
       inkscape:connector-curvature="0" /><path
       style="fill:none;stroke:#000000;stroke-width:2.21124601;stroke-linecap:butt;stroke-linejoin:round;stroke-miterlimit:4;stroke-opacity:1;stroke-dasharray:none;display:inline"
       d="m 107.05253,-109.36403 17.26437,5.0773 -12.08503,-20.3091 -12.08503,-9.02628"
       id="path5544-7"
       inkscape:connector-curvature="0" /><path
       style="fill:none;stroke:#000000;stroke-width:2.21124601;stroke-linecap:butt;stroke-linejoin:round;stroke-miterlimit:4;stroke-opacity:1;stroke-dasharray:none;display:inline"
       d="m 148.487,-104.85088 -0.57549,8.462128 -5.75476,4.513151"
       id="path5546-1"
       inkscape:connector-curvature="0" /><path
       style="fill:none;stroke:#000000;stroke-width:2.21124601;stroke-linecap:butt;stroke-linejoin:round;stroke-miterlimit:4;stroke-opacity:1;stroke-dasharray:none;display:inline"
       d="m 126.04333,-116.1337 1.72647,1.12826"
       id="path5548-5"
       inkscape:connector-curvature="0" /><path
       style="fill:none;stroke:#000000;stroke-width:2.21124601;stroke-linecap:butt;stroke-linejoin:round;stroke-miterlimit:4;stroke-opacity:1;stroke-dasharray:none;display:inline"
       d="m 132.94908,-56.334711 10.3586,11.847004"
       id="path5550-1"
       inkscape:connector-curvature="0" /></g><g
     inkscape:groupmode="layer"
     id="layer2"
     inkscape:label="roll"
     style="display:inline"
     transform="translate(0,206)"><path
       style="fill:#ffffff;fill-opacity:1;stroke:none;stroke-opacity:1"
       d="m 218.67375,-126.53336 0.10648,105.801663 c -0.57926,53.411552 -31.80857,81.4839 -82.8831,81.647932 l -0.31087,-45.027813 c 42.88205,-1.284791 34.22761,-29.210646 35.27,-42.468009 l 0.31093,-99.953773 z"
       id="path4043-0"
       inkscape:connector-curvature="0"
       sodipodi:nodetypes="ccccccc" /></g></svg>