<?xml version="1.0" encoding="UTF-8" standalone="no"?>
<!-- Generator: Adobe Illustrator 17.0.1, SVG Export Plug-In . SVG Version: 6.00 Build 0)  -->

<svg
   xmlns:osb="http://www.openswatchbook.org/uri/2009/osb"
   xmlns:dc="http://purl.org/dc/elements/1.1/"
   xmlns:cc="http://creativecommons.org/ns#"
   xmlns:rdf="http://www.w3.org/1999/02/22-rdf-syntax-ns#"
   xmlns:svg="http://www.w3.org/2000/svg"
   xmlns="http://www.w3.org/2000/svg"
   xmlns:xlink="http://www.w3.org/1999/xlink"
   xmlns:sodipodi="http://sodipodi.sourceforge.net/DTD/sodipodi-0.dtd"
   xmlns:inkscape="http://www.inkscape.org/namespaces/inkscape"
   version="1.1"
   x="0px"
   y="0px"
   width="86"
   height="86"
   viewBox="0 0 86 86"
   enable-background="new 0 0 86 86"
   xml:space="preserve"
   id="svg2"
   inkscape:version="0.48.5 r10040"
   sodipodi:docname="jollausers_292x292.svg"
   inkscape:export-filename="/Users/mtw/dev/sailfishos/jollausers-reader/jollausers-reader.git/qml/images/jollausers_292x292.png"
   inkscape:export-xdpi="90"
   inkscape:export-ydpi="90"><metadata
     id="metadata27"><rdf:RDF><cc:Work
         rdf:about=""><dc:format>image/svg+xml</dc:format><dc:type
           rdf:resource="http://purl.org/dc/dcmitype/StillImage" /><dc:title></dc:title></cc:Work></rdf:RDF></metadata><defs
     id="defs25"><linearGradient
       id="linearGradient5614"><stop
         style="stop-color:#bcbca0;stop-opacity:1;"
         offset="0"
         id="stop5616" /><stop
         style="stop-color:#bcbca0;stop-opacity:1;"
         offset="1"
         id="stop5618" /></linearGradient><linearGradient
       id="linearGradient5389"><stop
         style="stop-color:#1b91ff;stop-opacity:0.45299146;"
         offset="0"
         id="stop5391" /><stop
         style="stop-color:#1b91ff;stop-opacity:1;"
         offset="1"
         id="stop5393" /></linearGradient><linearGradient
       id="linearGradient5375"
       osb:paint="solid"><stop
         style="stop-color:#ab9145;stop-opacity:1;"
         offset="0"
         id="stop5377" /></linearGradient><linearGradient
       id="linearGradient5614-9"><stop
         style="stop-color:#bcbca0;stop-opacity:1;"
         offset="0"
         id="stop5616-7" /><stop
         style="stop-color:#bcbca0;stop-opacity:1;"
         offset="1"
         id="stop5618-5" /></linearGradient><linearGradient
       id="linearGradient5389-7"><stop
         style="stop-color:#8ddbd6;stop-opacity:0.96610171;"
         offset="0"
         id="stop5391-0" /><stop
         style="stop-color:#000000;stop-opacity:0.66101694;"
         offset="1"
         id="stop5393-0" /></linearGradient><linearGradient
       inkscape:collect="always"
       xlink:href="#linearGradient5614-9-1"
       id="linearGradient5620-6-0"
       x1="15.898305"
       y1="42.08408"
       x2="75.740959"
       y2="42.08408"
       gradientUnits="userSpaceOnUse"
       gradientTransform="matrix(3.9505119,0,0,3.9505119,-29.028371,-225.52539)" /><linearGradient
       id="linearGradient5614-9-1"><stop
         style="stop-color:#bcbca0;stop-opacity:1;"
         offset="0"
         id="stop5616-7-3" /><stop
         style="stop-color:#bcbca0;stop-opacity:1;"
         offset="1"
         id="stop5618-5-1" /></linearGradient><linearGradient
       y2="42.08408"
       x2="75.740959"
       y1="42.08408"
       x1="15.898305"
       gradientTransform="matrix(1.2114579,0,0,1.1875935,-10.628129,-6.1628146)"
       gradientUnits="userSpaceOnUse"
       id="linearGradient3052"
       xlink:href="#linearGradient5614-9-1"
       inkscape:collect="always" /><linearGradient
       inkscape:collect="always"
       xlink:href="#linearGradient5389-6"
       id="linearGradient3796"
       x1="25.418079"
       y1="24.258202"
       x2="89.528534"
       y2="93.105934"
       gradientUnits="userSpaceOnUse" /><linearGradient
       id="linearGradient5389-6"><stop
         style="stop-color:#8ddbd6;stop-opacity:0.96610171;"
         offset="0"
         id="stop5391-6" /><stop
         style="stop-color:#000000;stop-opacity:0.66101694;"
         offset="1"
         id="stop5393-3" /></linearGradient></defs><sodipodi:namedview
     pagecolor="#ffffff"
     bordercolor="#666666"
     borderopacity="1"
     objecttolerance="10"
     gridtolerance="10"
     guidetolerance="10"
     inkscape:pageopacity="0"
     inkscape:pageshadow="2"
     inkscape:window-width="1249"
     inkscape:window-height="717"
     id="namedview23"
     showgrid="false"
     inkscape:zoom="5.4883721"
     inkscape:cx="51.342194"
     inkscape:cy="37.637816"
     inkscape:window-x="32"
     inkscape:window-y="0"
     inkscape:window-maximized="0"
     inkscape:current-layer="layer6" /><g
     inkscape:groupmode="layer"
     id="layer6"
     inkscape:label="bg"
     transform="translate(0,-206)"><g
       id="Layer_1"
       style="display:inline"
       transform="matrix(-1.0030257,0,0,-1.0030257,86.257547,292.0899)"><linearGradient
         id="SVGID_1_"
         gradientUnits="userSpaceOnUse"
         x1="0.71689999"
         y1="85.283096"
         x2="85.283096"
         y2="0.71689999"
         xlink:href="#linearGradient5614"><stop
           offset="0"
           style="stop-color:#000000;stop-opacity:0.70588237;"
           id="stop7" /><stop
           offset="1"
           style="stop-color:#000000;stop-opacity:0.70588237;"
           id="stop9" /></linearGradient><path
         d="M 84.277,0.3 43,0.3 C 19.417,0.3 0.3,19.418 0.3,43 l 0,41.277 c 0,0.786 0.63700401,1.42551 1.423,1.423 L 82.424199,85.442325 C 85.904235,85.431215 85.699999,82.557819 85.7,73.147917 L 85.7,1.723 C 85.7,0.937 85.063,0.3 84.277,0.3 z"
         id="path11"
         inkscape:connector-curvature="0"
         style="fill:url(#linearGradient3796);fill-opacity:1"
         sodipodi:nodetypes="sssssssss" /><g
         id="g13" /></g></g><g
     id="Layer_2"
     display="none"
     style="display:none" /><g
     inkscape:groupmode="layer"
     id="layer1"
     inkscape:label="1"
     style="display:inline" /><g
     inkscape:groupmode="layer"
     id="layer4"
     inkscape:label="Layer"
     transform="translate(0,-206)"><path
       style="fill:#ffffff;fill-opacity:1;stroke:none;display:inline"
       d="m 47.878195,217.65946 0.05545,9.1877 12.491815,0.19767 -0.0024,-9.38537 z"
       id="path4158"
       inkscape:connector-curvature="0"
       sodipodi:nodetypes="ccccc" /></g><g
     inkscape:groupmode="layer"
     id="layer5"
     inkscape:label="L"
     transform="translate(0,-206)"><path
       style="fill:#8ddbd6;fill-opacity:1;stroke:none;display:inline"
       d="m 11.428554,217.23073 0.361569,43.28175 c 0.01734,11.55102 11.282789,22.10002 22.479512,21.86497 l 0.08433,-12.21244 c -8.415681,-1.32686 -9.562746,-7.55404 -9.565933,-10.45083 l 0.110905,-42.48345 z"
       id="path4043"
       inkscape:connector-curvature="0"
       sodipodi:nodetypes="ccccccc" /></g><g
     inkscape:groupmode="layer"
     id="layer3"
     inkscape:label="fish"
     style="display:inline"><path
       style="fill:url(#linearGradient3052);fill-opacity:1;fill-rule:nonzero;stroke:#000000;stroke-width:0.59973317;stroke-linecap:butt;stroke-linejoin:round;stroke-miterlimit:4;stroke-opacity:1;stroke-dasharray:none;display:inline"
       d="m 9.2377296,5.7383074 20.7487874,17.0943086 6.180483,3.8949 9.270729,0 11.036585,-14.497714 0.220745,3.678527 1.32439,0.216373 0,1.298308 1.103651,1.081924 0,0.649143 1.986582,1.298307 -0.220724,0.865527 1.324384,0 0,1.947462 0,0 2.207328,0 0,1.298297 2.648781,0 -1.103664,1.081923 2.869507,0.43277 0.6622,1.081911 4.856101,1.081913 -2.428052,2.163834 1.32439,0.865551 -1.986582,1.0819 0.882919,1.081924 -0.441457,1.514692 1.765847,0.649154 -1.531986,1.310583 1.872973,0 -0.780408,1.071039 1.404737,0.612034 -0.936496,0.765027 1.404734,0.765028 0,0.459029 0.936486,0.152994 -0.156087,0.765039 1.404734,0.612023 -1.716891,1.07105 3.433776,1.224045 0,0.765027 1.716894,1.530068 -3.121621,0 0.62432,1.989083 -2.653369,-1.224056 -1.092569,0.76504 0.156089,0.918034 -1.248651,0 0,0.918044 -1.248651,0.306 -0.78041,1.836079 0.156086,1.989084 -2.497299,-1.377051 -4.214172,1.224034 0.156082,4.284191 -0.468253,5.508223 -2.497292,3.213129 -3.589858,2.907118 -5.931074,1.07105 -5.150667,1.530056 -7.804058,4.59019 -11.081736,4.743196 10.457415,-5.814235 6.243231,-3.978168 0.624325,-2.601095 -4.058099,-3.825173 -5.774989,-2.754112 4.682418,1.377061 4.214192,2.754112 2.965538,1.683073 3.589853,-2.142089 1.716891,-3.366146 0,-3.213118 -3.589852,-4.131184 -8.584449,-8.262337 -1.248652,-0.612022 -4.214188,3.672146 -1.872968,3.519151 0.468249,-3.213128 4.058102,-6.273264 -6.867568,-8.109331 -3.121618,-3.978157 -3.74594,-2.295106 -4.838502,-1.224056 4.370258,-0.459016 6.711484,1.07105 0.468238,-1.37705 -1.87297,-4.743196 -5.150665,-4.896213 z"
       id="path5484-2"
       inkscape:connector-curvature="0" /><path
       style="fill:none;stroke:#000000;stroke-width:0.59973317;stroke-linecap:butt;stroke-linejoin:round;stroke-miterlimit:4;stroke-opacity:1;stroke-dasharray:none;display:inline"
       d="m 46.029249,26.964416 7.960129,6.426269 5.150655,5.814235 4.370274,9.333375 1.248654,6.120258 0,0 0,0 0,0"
       id="path5518-7"
       inkscape:connector-curvature="0" /><path
       style="fill:none;stroke:#000000;stroke-width:0.59973317;stroke-linecap:butt;stroke-linejoin:round;stroke-miterlimit:4;stroke-opacity:1;stroke-dasharray:none;display:inline"
       d="m 36.976543,27.117421 3.745954,2.448101 5.150666,0.765028 5.61891,4.896201 4.682433,4.590192 3.745938,7.03829 3.277694,5.66123 1.248654,2.4481"
       id="path5520-8"
       inkscape:connector-curvature="0" /><path
       style="fill:none;stroke:#000000;stroke-width:0.59973317;stroke-linecap:butt;stroke-linejoin:round;stroke-miterlimit:4;stroke-opacity:1;stroke-dasharray:none;display:inline"
       d="m 50.087344,30.177544 0,3.825163 0.468251,0.306011"
       id="path5522-1"
       inkscape:connector-curvature="0" /><path
       style="fill:none;stroke:#000000;stroke-width:0.59973317;stroke-linecap:butt;stroke-linejoin:round;stroke-miterlimit:4;stroke-opacity:1;stroke-dasharray:none;display:inline"
       d="m 53.365054,33.237679 -0.312172,3.672146"
       id="path5526-9"
       inkscape:connector-curvature="0" /><path
       style="fill:none;stroke:#000000;stroke-width:0.59973317;stroke-linecap:butt;stroke-linejoin:round;stroke-miterlimit:4;stroke-opacity:1;stroke-dasharray:none;display:inline"
       d="m 56.798838,36.909825 -0.780419,2.4481"
       id="path5528-3"
       inkscape:connector-curvature="0" /><path
       style="fill:none;stroke:#000000;stroke-width:0.59973317;stroke-linecap:butt;stroke-linejoin:round;stroke-miterlimit:4;stroke-opacity:1;stroke-dasharray:none;display:inline"
       d="m 58.827881,39.510931 -0.624323,3.672157"
       id="path5530-8"
       inkscape:connector-curvature="0" /><path
       style="fill:none;stroke:#000000;stroke-width:0.59973317;stroke-linecap:butt;stroke-linejoin:round;stroke-miterlimit:4;stroke-opacity:1;stroke-dasharray:none;display:inline"
       d="m 61.169094,44.10111 -0.936483,2.448112"
       id="path5532-4"
       inkscape:connector-curvature="0" /><path
       style="fill:none;stroke:#000000;stroke-width:0.59973317;stroke-linecap:butt;stroke-linejoin:round;stroke-miterlimit:4;stroke-opacity:1;stroke-dasharray:none;display:inline"
       d="m 63.198138,48.38529 -0.624321,2.601118"
       id="path5534-2"
       inkscape:connector-curvature="0" /><path
       style="fill:none;stroke:#000000;stroke-width:0.59973317;stroke-linecap:butt;stroke-linejoin:round;stroke-miterlimit:4;stroke-opacity:1;stroke-dasharray:none;display:inline"
       d="m 45.248842,41.346998 10.457407,15.912672 0,0 0,0 0,0 0,0 0,0"
       id="path5536-7"
       inkscape:connector-curvature="0" /><path
       style="fill:none;stroke:#000000;stroke-width:0.59973317;stroke-linecap:butt;stroke-linejoin:round;stroke-miterlimit:4;stroke-opacity:1;stroke-dasharray:none;display:inline"
       d="m 47.121817,32.319634 -0.78041,4.590191 -2.653374,2.295095 -2.965536,0.459017 -1.716895,-1.224056 -1.872973,-2.601095 -1.404723,-1.683074"
       id="path5538-2"
       inkscape:connector-curvature="0" /><path
       style="fill:none;stroke:#000000;stroke-width:0.59973317;stroke-linecap:butt;stroke-linejoin:round;stroke-miterlimit:4;stroke-opacity:1;stroke-dasharray:none;display:inline"
       d="m 39.629928,39.357925 -0.93649,2.295095 -2.653374,1.224045"
       id="path5540-4"
       inkscape:connector-curvature="0" /><path
       style="fill:none;stroke:#000000;stroke-width:0.59973317;stroke-linecap:butt;stroke-linejoin:round;stroke-miterlimit:4;stroke-opacity:1;stroke-dasharray:none;display:inline"
       d="M 35.571824,34.002707 29.016422,32.778662"
       id="path5542-0"
       inkscape:connector-curvature="0" /><path
       style="fill:none;stroke:#000000;stroke-width:0.59973317;stroke-linecap:butt;stroke-linejoin:round;stroke-miterlimit:4;stroke-opacity:1;stroke-dasharray:none;display:inline"
       d="m 30.733306,30.177544 4.682435,1.377062 -3.277698,-5.508224 -3.277697,-2.4481"
       id="path5544-7"
       inkscape:connector-curvature="0" /><path
       style="fill:none;stroke:#000000;stroke-width:0.59973317;stroke-linecap:butt;stroke-linejoin:round;stroke-miterlimit:4;stroke-opacity:1;stroke-dasharray:none;display:inline"
       d="m 41.971144,31.4016 -0.156082,2.295096 -1.560806,1.224056"
       id="path5546-1"
       inkscape:connector-curvature="0" /><path
       style="fill:none;stroke:#000000;stroke-width:0.59973317;stroke-linecap:butt;stroke-linejoin:round;stroke-miterlimit:4;stroke-opacity:1;stroke-dasharray:none;display:inline"
       d="m 35.883982,28.341478 0.468252,0.306"
       id="path5548-5"
       inkscape:connector-curvature="0" /><path
       style="fill:none;stroke:#000000;stroke-width:0.59973317;stroke-linecap:butt;stroke-linejoin:round;stroke-miterlimit:4;stroke-opacity:1;stroke-dasharray:none;display:inline"
       d="m 37.756956,44.560138 2.809455,3.21314"
       id="path5550-1"
       inkscape:connector-curvature="0" /></g><g
     inkscape:groupmode="layer"
     id="layer2"
     inkscape:label="roll"
     style="display:inline"><path
       style="fill:#ffffff;fill-opacity:1;stroke:none"
       d="m 61.007164,25.520887 0.02889,28.695482 C 60.878944,68.70263 52.408942,76.316394 38.556528,76.360888 l -0.08432,-12.212422 c 11.630451,-0.348465 9.283197,-7.922498 9.565913,-11.518158 l 0.08433,-27.109421 z"
       id="path4043-0"
       inkscape:connector-curvature="0"
       sodipodi:nodetypes="ccccccc" /></g></svg>