<?xml version="1.0" encoding="UTF-8" standalone="no"?>
<!-- Generator: Adobe Illustrator 17.0.1, SVG Export Plug-In . SVG Version: 6.00 Build 0)  -->

<svg
   xmlns:osb="http://www.openswatchbook.org/uri/2009/osb"
   xmlns:dc="http://purl.org/dc/elements/1.1/"
   xmlns:cc="http://creativecommons.org/ns#"
   xmlns:rdf="http://www.w3.org/1999/02/22-rdf-syntax-ns#"
   xmlns:svg="http://www.w3.org/2000/svg"
   xmlns="http://www.w3.org/2000/svg"
   xmlns:xlink="http://www.w3.org/1999/xlink"
   xmlns:sodipodi="http://sodipodi.sourceforge.net/DTD/sodipodi-0.dtd"
   xmlns:inkscape="http://www.inkscape.org/namespaces/inkscape"
   version="1.1"
   x="0px"
   y="0px"
   width="292"
   height="292"
   viewBox="0 0 292 292"
   enable-background="new 0 0 86 86"
   xml:space="preserve"
   id="svg2"
   inkscape:version="0.48.5 r10040"
   sodipodi:docname="jollausers-overlay.svg"
   inkscape:export-filename="/Users/mtw/dev/sailfishos/jollausers/jollausers/qml/images/jollausers-overlay.png"
   inkscape:export-xdpi="90"
   inkscape:export-ydpi="90"><metadata
     id="metadata27"><rdf:RDF><cc:Work
         rdf:about=""><dc:format>image/svg+xml</dc:format><dc:type
           rdf:resource="http://purl.org/dc/dcmitype/StillImage" /><dc:title /></cc:Work></rdf:RDF></metadata><defs
     id="defs25"><linearGradient
       id="linearGradient5614"><stop
         style="stop-color:#bcbca0;stop-opacity:1;"
         offset="0"
         id="stop5616" /><stop
         style="stop-color:#bcbca0;stop-opacity:1;"
         offset="1"
         id="stop5618" /></linearGradient><linearGradient
       id="linearGradient5389"><stop
         style="stop-color:#1b91ff;stop-opacity:0.45299146;"
         offset="0"
         id="stop5391" /><stop
         style="stop-color:#1b91ff;stop-opacity:1;"
         offset="1"
         id="stop5393" /></linearGradient><linearGradient
       id="linearGradient5375"
       osb:paint="solid"><stop
         style="stop-color:#ab9145;stop-opacity:1;"
         offset="0"
         id="stop5377" /></linearGradient><linearGradient
       inkscape:collect="always"
       xlink:href="#linearGradient5614-9"
       id="linearGradient5620-6"
       x1="15.898305"
       y1="42.08408"
       x2="75.740959"
       y2="42.08408"
       gradientUnits="userSpaceOnUse"
       gradientTransform="matrix(3.9505119,0,0,3.9505119,-29.028371,-225.52539)" /><linearGradient
       id="linearGradient5614-9"><stop
         style="stop-color:#bcbca0;stop-opacity:1;"
         offset="0"
         id="stop5616-7" /><stop
         style="stop-color:#bcbca0;stop-opacity:1;"
         offset="1"
         id="stop5618-5" /></linearGradient><linearGradient
       id="linearGradient5389-7"><stop
         style="stop-color:#8ddbd6;stop-opacity:0.96610171;"
         offset="0"
         id="stop5391-0" /><stop
         style="stop-color:#000000;stop-opacity:0.66101694;"
         offset="1"
         id="stop5393-0" /></linearGradient></defs><sodipodi:namedview
     pagecolor="#ffffff"
     bordercolor="#666666"
     borderopacity="1"
     objecttolerance="10"
     gridtolerance="10"
     guidetolerance="10"
     inkscape:pageopacity="0"
     inkscape:pageshadow="2"
     inkscape:window-width="1249"
     inkscape:window-height="717"
     id="namedview23"
     showgrid="false"
     inkscape:zoom="0.97021628"
     inkscape:cx="-40.05216"
     inkscape:cy="116.65469"
     inkscape:window-x="93"
     inkscape:window-y="62"
     inkscape:window-maximized="0"
     inkscape:current-layer="layer2" /><g
     id="Layer_2"
     display="none"
     style="display:none"
     transform="translate(0,206)" /><g
     inkscape:groupmode="layer"
     id="layer1"
     inkscape:label="1"
     transform="translate(0,206)" /><g
     inkscape:groupmode="layer"
     id="layer2"
     inkscape:label="roll"
     style="display:inline"
     transform="translate(0,206)"><path
       style="fill:#8ddbd6;fill-opacity:1;stroke:none"
       d="m 28.513315,-181.52274 2.879172,162.674058 C 32.487095,39.716359 58.562916,57.997077 112.7295,61.768551 L 112.00972,12.102558 C 80.980696,7.2103627 76.236059,-12.142095 76.739662,-38.283186 l 1.439599,-143.239554 z"
       id="path4043"
       inkscape:connector-curvature="0"
       sodipodi:nodetypes="ccccccc" /><path
       style="fill:#ffffff;fill-opacity:1;stroke:none;stroke-width:3.95051192999999978;stroke-opacity:1"
       d="m 168.1539,-180.08314 0.71977,30.23145 46.78677,0 0.7198,-30.23145 z"
       id="path4158"
       inkscape:connector-curvature="0"
       sodipodi:nodetypes="ccccc" /><path
       style="fill:url(#linearGradient5620-6);fill-opacity:1;fill-rule:nonzero;stroke:#000000;stroke-width:1.97525597;stroke-linecap:butt;stroke-linejoin:round;stroke-miterlimit:4;stroke-opacity:1;stroke-dasharray:none;display:inline"
       d="m 35.753338,-185.93654 67.660902,56.86396 20.15428,12.95634 30.23145,0 35.98983,-48.22641 0.71983,12.23656 4.31878,0.71977 0,4.31879 3.59896,3.59899 0,2.15939 6.47816,4.31878 -0.71977,2.87919 4.31876,0 0,6.47818 0,0 7.198,0 0,4.31875 8.63756,0 -3.599,3.59901 9.35734,1.4396 2.1594,3.59897 15.83554,3.59898 -7.91777,7.19796 4.31877,2.87921 -6.47816,3.598956 2.87917,3.598997 -1.43957,5.038595 5.75835,2.159398 -4.99574,4.359619 6.10768,0 -2.54487,3.56282 4.58078,2.035889 -3.05388,2.544876 4.58079,2.544841 0,1.526951 3.05383,0.508946 -0.50899,2.54488 4.58078,2.035896 -5.59871,3.562808 11.1974,4.071792 0,2.544841 5.59871,5.089761 -10.17947,0 2.03589,6.616633 -8.65253,-4.071792 -3.56281,2.54488 0.50899,3.053825 -4.07179,0 0,3.053862 -4.0718,1.017929 -2.54488,6.107689 0.50898,6.616634 -8.14358,-4.580738 -13.74224,4.071754 0.50898,14.251275 -1.52695,18.3230324 -8.14356,10.6884256 -11.70638,9.670499 -19.34097,3.562809 -16.7961,5.08972 -25.4487,15.269202 -36.137059,15.778146 34.101169,-19.340955 20.35892,-13.233306 2.03589,-8.652529 -13.23329,-12.724362 -18.83198,-9.1615204 15.26916,4.5807825 13.74229,9.1615139 9.6705,5.598706 11.70635,-7.125618 5.59871,-11.1974174 0,-10.6884254 -11.70635,-13.7422892 -27.99353,-27.484541 -4.07179,-2.035898 -13.74228,12.21534 -6.10767,11.706394 1.52693,-10.688426 13.2333,-20.867907 -22.39483,-26.975546 -10.17947,-13.233307 -12.215349,-7.63461 -15.778142,-4.07179 14.251225,-1.52692 21.885846,3.56282 1.52691,-4.58074 -6.10767,-15.77818 -16.7961,-16.28716 z"
       id="path5484-2"
       inkscape:connector-curvature="0" /><path
       style="fill:none;stroke:#000000;stroke-width:1.97525597;stroke-linecap:butt;stroke-linejoin:round;stroke-miterlimit:4;stroke-opacity:1;stroke-dasharray:none;display:inline"
       d="m 155.72889,-115.3282 25.95763,21.376895 16.79607,19.340948 14.25128,31.047351 4.0718,20.358924 0,0 0,0 0,0"
       id="path5518-7"
       inkscape:connector-curvature="0" /><path
       style="fill:none;stroke:#000000;stroke-width:1.97525597;stroke-linecap:butt;stroke-linejoin:round;stroke-miterlimit:4;stroke-opacity:1;stroke-dasharray:none;display:inline"
       d="m 126.20841,-114.81921 12.21538,8.14354 16.79611,2.54488 18.32303,16.28714 15.2692,15.269192 12.21534,23.412748 10.68843,18.83201 4.0718,8.143586"
       id="path5520-8"
       inkscape:connector-curvature="0" /><path
       style="fill:none;stroke:#000000;stroke-width:1.97525597;stroke-linecap:butt;stroke-linejoin:round;stroke-miterlimit:4;stroke-opacity:1;stroke-dasharray:none;display:inline"
       d="m 168.96216,-104.63977 0,12.724328 1.52694,1.017958"
       id="path5522-1"
       inkscape:connector-curvature="0" /><path
       style="fill:none;stroke:#000000;stroke-width:1.97525597;stroke-linecap:butt;stroke-linejoin:round;stroke-miterlimit:4;stroke-opacity:1;stroke-dasharray:none;display:inline"
       d="m 179.65063,-94.460291 -1.01797,12.215336"
       id="path5526-9"
       inkscape:connector-curvature="0" /><path
       style="fill:none;stroke:#000000;stroke-width:1.97525597;stroke-linecap:butt;stroke-linejoin:round;stroke-miterlimit:4;stroke-opacity:1;stroke-dasharray:none;display:inline"
       d="m 190.84805,-82.244955 -2.54491,8.143585"
       id="path5528-3"
       inkscape:connector-curvature="0" /><path
       style="fill:none;stroke:#000000;stroke-width:1.97525597;stroke-linecap:butt;stroke-linejoin:round;stroke-miterlimit:4;stroke-opacity:1;stroke-dasharray:none;display:inline"
       d="m 197.46467,-73.592386 -2.03589,12.215338"
       id="path5530-8"
       inkscape:connector-curvature="0" /><path
       style="fill:none;stroke:#000000;stroke-width:1.97525597;stroke-linecap:butt;stroke-linejoin:round;stroke-miterlimit:4;stroke-opacity:1;stroke-dasharray:none;display:inline"
       d="m 205.09927,-58.323224 -3.05383,8.143585"
       id="path5532-4"
       inkscape:connector-curvature="0" /><path
       style="fill:none;stroke:#000000;stroke-width:1.97525597;stroke-linecap:butt;stroke-linejoin:round;stroke-miterlimit:4;stroke-opacity:1;stroke-dasharray:none;display:inline"
       d="m 211.7159,-44.07199 -2.03589,8.65257"
       id="path5534-2"
       inkscape:connector-curvature="0" /><path
       style="fill:none;stroke:#000000;stroke-width:1.97525597;stroke-linecap:butt;stroke-linejoin:round;stroke-miterlimit:4;stroke-opacity:1;stroke-dasharray:none;display:inline"
       d="m 153.18401,-67.484738 34.10116,52.933226 0,0 0,0 0,0 0,0 0,0"
       id="path5536-7"
       inkscape:connector-curvature="0" /><path
       style="fill:none;stroke:#000000;stroke-width:1.97525597;stroke-linecap:butt;stroke-linejoin:round;stroke-miterlimit:4;stroke-opacity:1;stroke-dasharray:none;display:inline"
       d="m 159.29171,-97.514151 -2.54489,15.269196 -8.65253,7.634598 -9.6705,1.526916 -5.59871,-4.071791 -6.10768,-8.652529 -4.58074,-5.598709"
       id="path5538-2"
       inkscape:connector-curvature="0" /><path
       style="fill:none;stroke:#000000;stroke-width:1.97525597;stroke-linecap:butt;stroke-linejoin:round;stroke-miterlimit:4;stroke-opacity:1;stroke-dasharray:none;display:inline"
       d="m 134.86098,-74.10137 -3.05386,7.634601 -8.65253,4.071753"
       id="path5540-4"
       inkscape:connector-curvature="0" /><path
       style="fill:none;stroke:#000000;stroke-width:1.97525597;stroke-linecap:butt;stroke-linejoin:round;stroke-miterlimit:4;stroke-opacity:1;stroke-dasharray:none;display:inline"
       d="M 121.62768,-91.915442 100.2508,-95.987195"
       id="path5542-0"
       inkscape:connector-curvature="0" /><path
       style="fill:none;stroke:#000000;stroke-width:1.97525597;stroke-linecap:butt;stroke-linejoin:round;stroke-miterlimit:4;stroke-opacity:1;stroke-dasharray:none;display:inline"
       d="m 105.84948,-104.63977 15.26921,4.58078 -10.68842,-18.32303 -10.688429,-8.14358"
       id="path5544-7"
       inkscape:connector-curvature="0" /><path
       style="fill:none;stroke:#000000;stroke-width:1.97525597;stroke-linecap:butt;stroke-linejoin:round;stroke-miterlimit:4;stroke-opacity:1;stroke-dasharray:none;display:inline"
       d="m 142.49558,-100.56797 -0.50898,7.634596 -5.08971,4.071792"
       id="path5546-1"
       inkscape:connector-curvature="0" /><path
       style="fill:none;stroke:#000000;stroke-width:1.97525597;stroke-linecap:butt;stroke-linejoin:round;stroke-miterlimit:4;stroke-opacity:1;stroke-dasharray:none;display:inline"
       d="m 122.64561,-110.74742 1.52695,1.01792"
       id="path5548-5"
       inkscape:connector-curvature="0" /><path
       style="fill:none;stroke:#000000;stroke-width:1.97525597;stroke-linecap:butt;stroke-linejoin:round;stroke-miterlimit:4;stroke-opacity:1;stroke-dasharray:none;display:inline"
       d="m 128.7533,-56.796311 9.16151,10.688466"
       id="path5550-1"
       inkscape:connector-curvature="0" /><path
       style="fill:#ffffff;fill-opacity:1;stroke:none;stroke-width:3.95051192999999978;stroke-opacity:1"
       d="m 217.21612,-128.7198 -1.43957,109.409105 c -1.09461,58.565042 -27.17043,76.845759 -81.33705,80.617234 l 0.71983,-49.665954 c 31.02902,-4.8922341 35.77366,-16.3269195 35.27,-42.468009 l -0.71977,-97.892376 z"
       id="path4043-0"
       inkscape:connector-curvature="0"
       sodipodi:nodetypes="ccccccc" /></g><g
     inkscape:groupmode="layer"
     id="layer3"
     inkscape:label="fish"
     style="display:inline"
     transform="translate(0,206)" /><g
     inkscape:groupmode="layer"
     id="layer4"
     inkscape:label="roll-fill"
     transform="translate(0,206)" /></svg>